<svg width="444" height="583" viewBox="0 0 444 583" fill="none" xmlns="http://www.w3.org/2000/svg">
<path d="M7 236L68.878 271.854L66.1585 300.89L66.439 375.927L66 480C66 480 67.786 505.362 88.9949 517.815L90.5 518.5L90.5494 518.685C94.0753 520.566 98.1043 522.097 102.707 523.122C136.915 530.744 184 497.5 184 497.5L184.829 577.5L92.5 526L90.5494 518.685C90.02 518.403 89.5019 518.113 88.9949 517.815L23.5 488L12 478L4.5 464L3 372L4.5 281.5L5 249.5L7 236Z" fill="#343779"/>
<path d="M102.707 230.9L45.7314 193.51C58.551 172.141 89.0566 152.559 102.707 145.439C153.748 117.545 263.663 56.7708 295 36.8293C326.336 16.8879 344.853 21.3984 350.195 26.1464C353.162 27.926 369.424 36.8266 410.731 58.1925C395.063 53.9193 373.341 62.3469 364.439 67.0949C319.927 92.6152 219.863 149.353 175.707 172.144C131.551 194.934 107.455 221.997 102.707 230.9Z" fill="#FBB03A"/>
<path d="M92.9046 519.928C77.2584 511.891 68.6463 495.638 66.4152 482.061C66.4065 482.008 66.4023 481.958 66.4023 481.905C66.4023 451.104 66.4023 372.301 66.4023 302.823C66.4023 233.286 115.875 185.156 140.612 169.783C185.962 144.359 293.272 84.6398 359.707 49.1627C378.089 39.3466 392.566 35.551 403.879 35.7468C433.455 36.2586 441.41 64.0479 440.984 82.8659C440.984 108.882 440.984 179.718 440.984 254.93C440.984 330.141 391.511 376.143 366.774 389.743L299.848 425.106C299.706 425.181 299.657 425.185 299.566 425.316C296.629 429.546 197.923 571.71 195.663 574.952C193.369 578.243 190.172 580.823 187.752 579.544M92.9046 519.928C110.381 528.905 146.925 524.188 183.165 497.385C183.83 496.894 184.784 497.373 184.784 498.199C184.784 540.939 184.784 565.49 184.784 574.222C185.038 576.258 185.924 578.579 187.752 579.544M92.9046 519.928C78.1805 513.192 44.845 497.947 29.2964 490.852C13.853 483.805 6.42837 470.341 4.59763 464.365C4.57215 464.282 4.5598 464.205 4.55722 464.118C3.37954 424.424 1.7369 327.939 4.56095 258.478C7.38798 188.943 50.5002 149.09 71.7029 139.628C125.299 109.473 242.032 43.4861 280.197 20.7797C318.361 -1.92678 345.225 1.85809 352.881 6.58882L416.89 38.0942M187.752 579.544C187.752 579.544 96.4384 529.876 92.9046 526.329C91.5972 525.016 91.2572 520.774 91.3477 519.761" stroke="#343779" stroke-width="5" stroke-linecap="round" stroke-linejoin="round"/>
<ellipse cx="265.055" cy="306.663" rx="77.753" ry="133.05" transform="rotate(30 265.055 306.663)" fill="#FBB03A"/>
<path d="M318.069 330.286C299.881 361.789 276.009 385.893 252.233 399.453C228.397 413.049 205.13 415.826 187.623 405.719C170.117 395.611 160.889 374.073 160.744 346.632C160.6 319.262 169.539 286.536 187.727 255.033C205.916 223.53 229.788 199.426 253.563 185.865C277.399 172.27 300.666 169.493 318.173 179.6C335.68 189.708 344.908 211.246 345.052 238.686C345.196 266.057 336.258 298.783 318.069 330.286Z" stroke="#343779" stroke-width="5" stroke-linecap="round" stroke-linejoin="round"/>
<path d="M213.098 279.972L250.679 334.521C251.603 335.863 253.658 335.596 254.208 334.063L327.049 131.195" stroke="#343779" stroke-width="5" stroke-linecap="round" stroke-linejoin="round"/>
</svg>
